<svg xmlns="http://www.w3.org/2000/svg" width="1200" height="630" viewBox="0 0 1200 630" version="1.1"><path d="M 38.667 205.667 C 38.300 206.033, 38 258.016, 38 321.184 L 38 436.036 62.250 435.768 L 86.500 435.500 87 393.500 C 87.486 352.681, 87.562 351.385, 89.691 347.405 C 90.896 345.153, 93.490 341.899, 95.455 340.174 C 109.717 327.651, 127.721 330.872, 135.137 347.273 C 137.499 352.498, 137.500 352.515, 137.500 394 L 137.500 435.500 184.725 435.760 L 231.949 436.020 232.225 420.343 L 232.500 404.667 236.409 410.583 C 248.960 429.582, 269.172 440.011, 293.410 439.992 C 298.959 439.988, 306.402 439.514, 309.949 438.939 C 317.037 437.789, 329.491 432.974, 333.466 429.848 L 336 427.855 336 434.746 C 336 448.814, 330.836 457.722, 319.290 463.568 C 313.843 466.326, 312.788 466.500, 301.500 466.500 C 290.151 466.500, 289.147 466.332, 283 463.405 C 278.995 461.498, 274.510 458.257, 271.314 454.961 L 266.128 449.613 247.051 459.057 C 228.892 468.045, 228.001 468.620, 228.555 471 C 230.337 478.657, 238.571 488.250, 249.804 495.755 C 263.833 505.128, 279.525 508.989, 303.619 508.996 C 326.216 509.003, 340.188 505.478, 355.603 495.882 C 365.720 489.583, 372.184 482.455, 377.455 471.784 C 382.030 462.522, 383.842 455.721, 384.651 444.767 L 385.297 436.035 409.399 435.767 L 433.500 435.500 434 393.500 C 434.488 352.474, 434.552 351.403, 436.726 347.336 C 438.842 343.380, 445.021 337.548, 449.623 335.165 C 461.103 329.220, 475.056 333.712, 481.284 345.357 C 483.448 349.403, 483.512 350.503, 484 392.500 L 484.500 435.500 507.750 435.768 L 531 436.037 530.864 378.768 C 530.789 347.271, 530.529 322.540, 530.286 323.812 C 529.903 325.817, 529.382 325.353, 526.360 320.312 C 520.015 309.730, 513.066 304.356, 498.869 299.050 C 476.167 290.565, 456.681 293.118, 439.303 306.855 L 434.210 310.880 433.714 308.283 C 433.441 306.855, 433.451 283.585, 433.738 256.573 C 434.193 213.641, 434.069 207.302, 432.754 206.210 C 431.626 205.274, 425.524 205.029, 408.375 205.231 L 385.500 205.500 385.240 251.732 L 384.980 297.964 360.740 298.232 L 336.500 298.500 336 303.800 L 335.500 309.100 332 306.436 C 326.775 302.459, 314.360 296.989, 307 295.420 C 298.440 293.596, 285.089 293.656, 277 295.556 C 261.388 299.223, 245.705 310.063, 236.359 323.645 L 232.500 329.254 232 313.877 L 231.500 298.500 208.071 298.231 C 189.994 298.024, 184.457 298.252, 183.836 299.231 C 183.393 299.929, 183.004 306.350, 182.971 313.500 L 182.912 326.500 180.829 322.500 C 177.633 316.362, 170.330 308.278, 165.338 305.352 C 149.330 295.971, 129.201 291.983, 114.875 295.355 C 108.423 296.874, 97.630 302.531, 91.322 307.699 L 87 311.241 87 259.320 C 87 220.271, 86.703 207.103, 85.800 206.200 C 84.501 204.901, 39.937 204.397, 38.667 205.667 M 203.344 214.031 C 197.472 215.208, 192.091 218.208, 187.860 222.665 C 182.560 228.249, 180.739 232.555, 180.207 240.760 C 179.776 247.392, 180.010 248.577, 182.903 254.454 C 196.154 281.372, 237.024 271.957, 236.968 242 C 236.954 234.307, 234.870 229.075, 229.413 223.035 C 222.731 215.640, 212.665 212.163, 203.344 214.031 M 294.214 338.076 C 268.927 348.078, 268.514 386.513, 293.593 395.965 C 302.247 399.227, 314.312 398.583, 321.964 394.451 C 342.928 383.130, 341.792 349.256, 320.101 338.879 C 313.366 335.657, 301.277 335.282, 294.214 338.076" stroke="none" fill="#fc5343" fill-rule="evenodd"/><path d="M 530.446 207.169 C 530.068 208.363, 530.093 260.338, 530.503 322.669 L 531.249 436 554.497 436 L 577.744 436 578.368 432.102 C 578.710 429.959, 578.712 426.809, 578.370 425.102 C 578.029 423.396, 578.075 422, 578.472 422 C 578.868 422, 581.287 423.866, 583.847 426.147 C 589.273 430.983, 602.377 437.458, 610.077 439.110 C 617.841 440.775, 634.894 439.686, 643.500 436.976 C 657.777 432.481, 666.554 426.364, 675.704 414.531 L 681.500 407.035 681.777 421.518 L 682.053 436 706.027 436 C 724.478 436, 730.026 435.712, 730.113 434.750 C 730.176 434.063, 730.288 416.850, 730.363 396.500 C 730.495 360.960, 730.586 359.291, 732.676 354.191 C 737.625 342.118, 745.129 337, 757.881 337 C 765.897 337, 776.880 339.524, 777.656 341.545 C 777.915 342.221, 777.424 346.181, 776.564 350.345 C 774.594 359.883, 774.574 376.566, 776.522 384.832 C 779.891 399.123, 786.844 410.404, 798.142 419.915 C 813.741 433.046, 833.931 440.002, 856.434 439.999 C 879.445 439.996, 898.929 433.647, 913.678 421.346 C 922.428 414.047, 927.037 408.394, 931.997 398.876 C 937.182 388.927, 939.201 380.044, 939.228 367.061 C 939.246 358.354, 939.462 356.911, 940.524 358.364 C 941.225 359.323, 946.772 369.646, 952.850 381.304 C 958.928 392.962, 967.868 409.925, 972.715 419 L 981.528 435.500 998.476 435.500 L 1015.424 435.500 1020.723 423 C 1029.506 402.283, 1045.303 368, 1046.067 368 C 1046.460 368, 1048.695 372.387, 1051.032 377.750 C 1056.648 390.632, 1069.994 420.754, 1073.863 429.274 L 1076.938 436.049 1093.673 435.774 L 1110.407 435.500 1114.819 427 C 1117.246 422.325, 1126.448 405, 1135.270 388.500 C 1144.091 372, 1156.477 348.825, 1162.794 337 C 1169.111 325.175, 1176.253 311.934, 1178.665 307.575 C 1181.077 303.216, 1182.671 299.271, 1182.208 298.808 C 1181.745 298.345, 1169.329 298.087, 1154.617 298.233 L 1127.868 298.500 1118.866 318 C 1113.916 328.725, 1106.961 344.250, 1103.412 352.500 C 1096.632 368.260, 1095.390 370.740, 1094.664 369.971 C 1094.070 369.340, 1073.351 323.109, 1068.013 310.500 C 1065.684 305, 1063.324 299.938, 1062.767 299.250 C 1062.035 298.346, 1057.398 298, 1046 298 C 1034.608 298, 1029.962 298.346, 1029.222 299.250 C 1028.007 300.735, 1011.744 336.767, 1003.496 356.250 C 1000.294 363.813, 997.369 370, 996.996 370 C 996.318 370, 986.020 347.856, 972.480 317.282 C 968.529 308.361, 964.725 300.374, 964.026 299.532 C 962.944 298.227, 958.852 298, 936.437 298 C 921.961 298, 909.885 298.378, 909.599 298.839 C 909.314 299.301, 910.851 303.013, 913.014 307.089 C 915.177 311.165, 916.959 314.819, 916.974 315.210 C 916.988 315.600, 913.962 313.614, 910.250 310.796 C 902.401 304.837, 894.561 301.068, 882.284 297.352 C 874.387 294.962, 871.885 294.689, 857.500 294.653 C 844.148 294.620, 840.230 294.966, 833.825 296.747 C 821.778 300.095, 811.280 304.877, 804.401 310.150 C 800.920 312.817, 797.824 315, 797.519 315 C 797.215 315, 798.099 312.765, 799.483 310.033 C 800.867 307.302, 802 304.419, 802 303.627 C 802 302.048, 790.163 296.737, 782.927 295.069 C 767.612 291.539, 749.999 297.171, 737.210 309.686 C 729.996 316.746, 729.369 316.460, 730.383 306.570 C 730.872 301.793, 730.692 299.989, 729.639 299.115 C 728.657 298.300, 721.539 298.041, 705.375 298.231 L 682.500 298.500 682 313.377 L 681.500 328.255 677.641 322.645 C 668.952 310.017, 656.482 300.979, 641.285 296.292 C 632.207 293.493, 612.674 293.814, 603.500 296.913 C 594.675 299.894, 587.559 303.427, 582.750 307.215 L 579 310.168 579 258.191 C 579 211.717, 578.833 206.150, 577.418 205.607 C 576.548 205.273, 565.779 205, 553.486 205 C 531.431 205, 531.126 205.029, 530.446 207.169 M 850.326 336.025 C 838.281 338.463, 828.111 349.079, 826.212 361.195 C 823.883 376.062, 829.773 388.956, 841.670 395.033 C 845.898 397.192, 847.809 397.500, 857 397.500 C 866.875 397.500, 867.827 397.316, 873 394.416 C 889.983 384.893, 893.007 358.212, 878.692 344.199 C 871.584 337.242, 860.333 333.999, 850.326 336.025 M 596.500 337.902 C 590.557 340.664, 584.810 346.107, 581.468 352.141 C 578.762 357.028, 578.500 358.337, 578.500 367 C 578.500 374.826, 578.896 377.303, 580.745 381.055 C 583.509 386.664, 587.945 391.297, 593.882 394.777 C 600.319 398.549, 613.912 399.165, 622.157 396.058 C 633.742 391.692, 640.458 380.078, 639.826 365.500 C 639.274 352.747, 633.369 343.503, 622.500 338.378 C 615.948 335.288, 602.651 335.045, 596.500 337.902" stroke="none" fill="#040404" fill-rule="evenodd"/></svg>